<?xml version="1.0" encoding="UTF-8"?>
<svg id="Lager_1" data-name="Lager 1" xmlns="http://www.w3.org/2000/svg" viewBox="0 0 767.4 542.19">
  <defs>
    <style>
      .cls-1 {
        fill: #dac1ff;
      }

      .cls-2 {
        fill: #9b84bc;
      }
    </style>
  </defs>
  <path class="cls-2" d="M165.88,468.53l62.44-74.58L22.09,261.13l123.72-154.87,204.02,122.76v-113.39c0-55.49,45.14-100.63,100.63-100.63h104l-101.24,202.48h275.97l-97.55,90.52-99.3,203.48-55.81-46.31,57.5-69.7-101.44-85.66-175.95,212.9-90.75-54.18Z"/>
  <path class="cls-1" d="M530.18,30l-79.53,159.06-21.71,43.42h262.02l-67.49,62.62-4.1,3.81-2.45,5.03-89.7,183.81-29.61-24.57,38.55-46.72,18.87-22.88-22.66-19.13-78.52-66.31-23.17-19.56-19.32,23.37-158.09,191.29-64.59-38.56,40.23-48.05,21.83-26.07-28.58-18.41-177.97-114.63,105.16-131.63,170.03,102.31,45.47,27.36V115.63c0-47.21,38.41-85.63,85.63-85.63h79.73M578.72,0h-128.27c-63.86,0-115.63,51.77-115.63,115.63v86.86l-192.54-115.85L0,264.74l205.9,132.61-62.82,75.03,116.91,69.8,174.49-211.14,78.52,66.31-57.58,69.8,82.01,68.05,106.44-218.12,123.52-114.61h-289.92L578.72,0h0Z"/>
</svg>