<?xml version="1.0" encoding="UTF-8"?>
<svg id="Lager_1" data-name="Lager 1" xmlns="http://www.w3.org/2000/svg" viewBox="0 0 809.92 671.41">
  <defs>
    <style>
      .cls-1 {
        fill: #57d494;
      }

      .cls-2 {
        fill: #faef85;
      }
    </style>
  </defs>
  <path class="cls-2" d="M559.65,646.91l101.24-202.48h-167.91c-77.27,0-140.13,62.86-140.13,140.13v43.52l-155.4-93.51c-26.19-15.76-40.07-43.33-37.12-73.76s21.86-54.82,50.59-65.27l82.87-30.12L53.62,226.39l147.7-66.46,111.6,102.84,74.5-3.92-2.39-181.59,87.47-39.36v222.68h165.35c81.38,0,147.58,66.2,147.58,147.58v238.76h-225.77Z"/>
  <path class="cls-1" d="M448,75.78v209.29h189.85c32.88,0,63.78,12.8,87.03,36.05,23.25,23.25,36.05,54.15,36.05,87.03v214.26h-161.63l65.78-131.57,35.46-70.91h-207.56c-22.2,0-43.77,4.36-64.09,12.96-19.61,8.29-37.21,20.16-52.31,35.26-15.1,15.1-26.97,32.7-35.26,52.31-8.6,20.33-12.96,41.89-12.96,64.09v.18l-118.27-71.17c-9.28-5.59-16.2-13.06-20.56-22.21-4.1-8.6-5.76-18.35-4.81-28.19.95-9.84,4.45-19.09,10.13-26.74,6.04-8.15,14.26-14.16,24.44-17.86l33.54-12.19,98.66-35.86-90.85-52.6-153.38-88.8,89.37-40.22,92.12,84.88,15.17,13.98,20.61-1.08,40.67-2.14,47.04-2.48-.62-47.1-1.87-141.97,38.26-17.22M497,0l-136.67,61.5,2.29,174.11-40.67,2.14-115.92-106.81L0,223.65l236.07,136.67-33.54,12.19c-80.54,29.27-91.16,138.86-17.73,183.04l192.54,115.85v-86.86c0-63.86,51.77-115.63,115.63-115.63h128.27l-101.24,202.48h289.92v-263.26c0-95.04-77.04-172.08-172.08-172.08h-140.85V0h0Z"/>
</svg>